<svg width="510" height="101" viewBox="0 0 510 101" fill="none" xmlns="http://www.w3.org/2000/svg">
<path fill-rule="evenodd" clip-rule="evenodd" d="M98.9965 49.674H95.8725C90.3135 49.674 85.7977 53.8384 85.7977 59.3974C85.7977 63.9132 87.1868 69.1208 93.0944 69.1208C98.3047 69.1208 99.3452 64.9563 99.3452 60.7837V50.363C99.3424 50.363 99.6911 49.674 98.9965 49.674ZM257.279 100.386H246.338C238.486 99.4487 231.685 96.4499 231.685 89.2677C231.685 84.06 237.587 80.2415 242.454 79.5442C242.454 79.5442 243.843 79.1983 242.454 79.1983C240.716 78.847 231.339 78.1552 228.212 78.847C228.212 78.847 227.517 78.847 227.169 78.1552C226.823 77.4579 225.085 72.5962 224.737 72.2503C224.391 71.553 225.082 71.2071 225.082 71.2071C232.031 70.164 238.281 66.6913 241.059 65.6482C242.797 65.3023 241.059 64.9564 241.059 64.9564C231.336 63.2159 221.607 56.6193 221.607 45.1554C221.607 28.8298 235.155 21.5359 248.005 21.5359C253.91 21.5359 257.382 22.5791 260.509 22.925C260.509 22.925 260.855 23.2736 261.206 22.5791C261.206 21.5359 262.244 18.7578 262.244 18.7578C263.638 14.5906 265.717 12.8529 271.973 12.8529C273.362 12.8529 274.751 12.8529 275.791 13.2015C275.791 13.2015 276.489 12.8529 276.489 13.8961C276.137 14.242 274.051 22.5791 274.051 22.925C273.705 23.9681 273.359 23.2736 273.359 23.2736C272.316 22.5791 271.97 22.2304 269.541 22.5791C268.146 22.5791 267.454 23.6195 267.454 25.0113C267.454 27.4435 278.567 30.9162 278.567 44.115C278.567 61.8296 262.241 65.6482 248.002 69.1235C248.002 69.1235 246.613 69.4694 248.002 69.4694C257.38 70.5126 276.832 72.9421 276.832 85.1032C276.84 95.3414 265.417 99.288 257.279 100.386ZM121.227 72.2503H124.005C124.7 72.2503 124.7 72.9421 124.7 72.9421V78.5011C124.7 79.5442 123.659 79.1983 123.659 79.1983H101.429C101.429 79.1983 101.08 79.1983 101.08 78.5011C100.734 77.112 100.04 75.723 100.04 74.6825C99.6938 73.2935 98.9965 74.6825 98.9965 74.6825C94.4807 78.1552 89.2704 80.9333 83.0196 80.9333C72.5989 80.9333 64.6104 74.3366 64.6104 63.5646C64.6104 50.3658 72.9475 43.0745 83.3682 43.0745L99.3452 42.38V41.6882V39.9505C99.3452 35.4347 96.9129 33.3511 91.7026 33.3511C85.1032 33.3511 81.9792 35.7833 78.8524 39.6019C78.8524 39.6019 78.8524 39.9478 78.1579 39.9478C77.4634 39.6019 71.9071 37.5156 71.9071 37.5156C71.9071 37.5156 71.2126 37.5156 71.5612 36.821C71.9098 36.1265 78.8551 19.4551 78.8551 19.4551C78.8551 19.4551 78.8551 18.7605 79.201 19.1092C80.2415 19.4551 84.4114 20.8468 85.4518 20.8468C86.1464 21.1927 85.7977 21.8873 85.7977 21.8873L85.1032 23.2763C84.7573 24.6654 85.4491 23.9709 85.4491 23.9709C89.9649 22.2332 94.4807 21.5386 98.9965 21.5386C112.195 21.5386 120.881 27.0976 120.881 40.6423V71.2099C120.878 71.2071 120.878 72.2503 121.227 72.2503ZM122.616 25.7031C131.645 23.2709 139.288 17.366 143.109 9.02891C143.109 9.02891 143.109 8.68301 143.803 8.68301C144.498 8.68301 149.014 9.72618 149.708 9.72618C150.403 10.0721 150.054 10.4207 150.054 10.4207C149.708 13.2015 149.36 16.3256 149.36 18.7578V22.925C149.36 23.6195 150.054 23.2736 150.054 23.2736H159.432C160.126 23.2736 159.778 23.9681 159.778 23.9681C159.778 23.9681 158.388 30.9162 158.388 31.6107C158.043 32.3052 157.694 32.3052 157.694 32.3052H150.051C149.354 32.3052 149.357 32.6539 149.357 32.6539V64.9591C149.357 68.7776 152.484 69.4694 154.221 69.4694C155.956 69.4694 156.305 69.4694 157.694 68.7776C157.694 68.7776 158.388 68.0804 158.388 68.7776C158.734 69.4694 160.472 73.9853 160.821 74.6825C161.167 75.0284 160.472 75.3743 160.472 75.3743C153.178 80.5874 152.484 80.9333 142.757 80.9333C131.991 80.9333 128.17 75.7257 128.17 66.0022V32.6511C128.17 32.6511 128.17 32.3025 127.475 32.3025H122.613C122.613 32.3025 122.265 32.3025 122.265 31.608V26.3976C122.267 26.0517 122.616 25.7031 122.616 25.7031ZM281.004 51.0603C281.004 32.997 295.246 21.5359 314.007 21.5359C332.759 21.5359 347.35 32.997 347.35 51.0603C347.35 69.8181 332.759 80.9306 314.007 80.9306C295.244 80.9306 281.004 69.8181 281.004 51.0603ZM302.543 43.0718C302.543 51.4089 306.016 72.2503 317.826 72.2503C324.076 72.2503 325.811 65.6482 325.811 59.3974C325.811 51.0603 322.344 30.2216 310.183 30.2216C302.543 30.2189 302.543 38.9019 302.543 43.0718ZM413.347 79.1956H384.168C384.168 79.1956 383.822 79.1956 383.822 78.8443V72.9394C383.822 72.2476 384.514 72.2476 384.514 72.2476H387.987C388.338 72.2476 388.338 71.9017 388.338 71.9017V40.2937C388.338 36.8211 385.211 35.4293 382.082 35.4293C378.263 35.4293 375.485 37.1669 372.704 39.5964C372.704 39.5964 372.358 39.9423 372.358 40.291V71.9017C372.358 71.9017 372.358 72.2476 372.704 72.2476H376.528C376.528 72.2476 376.874 72.2476 376.874 72.9394V78.8443C376.874 79.1956 376.528 79.1956 376.528 79.1956H347.35C347.35 79.1956 347.004 79.5415 347.004 78.4984V72.9394C347.004 72.2476 347.35 72.2476 347.35 72.2476H350.471C351.168 72.2476 350.823 71.9017 350.823 71.9017V34.7347C350.823 34.7347 351.168 34.0402 350.471 34.0402L347.35 35.0834C347.35 35.0834 347.004 35.4293 347.004 34.7375V28.8326C347.004 28.1381 347.35 28.4867 347.35 28.4867L372.013 21.8873C372.013 21.8873 372.704 21.5414 372.704 22.2332V30.2244C372.704 31.2648 373.056 30.5703 373.056 30.5703C378.961 26.0545 384.865 21.5386 392.851 21.5386C407.788 21.5386 409.874 31.6107 409.874 37.8642V71.9071C409.874 71.9071 409.528 72.253 410.22 72.253H413.347C413.347 72.253 413.693 72.253 413.693 72.9448V78.5038C413.693 79.5415 413.347 79.1956 413.347 79.1956ZM442.871 21.8818L418.208 28.4812C418.208 28.4812 417.862 28.4812 417.862 29.1758V34.7347C417.862 35.4293 418.554 35.0806 418.554 35.0806C418.554 35.0806 420.295 34.7347 421.681 34.3861C422.378 34.3861 422.027 35.0806 422.027 35.4265V71.9017C422.027 71.9017 422.378 72.2476 421.681 72.2476H418.208C418.208 72.2476 417.511 72.2476 417.511 72.9394V78.8443C417.511 79.5415 418.208 79.1956 418.208 79.1956H447.041C447.733 79.1956 447.387 78.4984 447.387 78.4984V72.9394C447.387 72.2476 446.69 72.2476 446.69 72.2476H443.911C443.214 72.2476 443.566 71.9017 443.566 71.9017V22.2277C443.566 21.5332 442.871 21.8818 442.871 21.8818ZM434.188 4.51583C439.05 4.51583 444.603 5.90489 444.603 11.8098C444.603 18.7578 435.231 21.5359 429.326 21.5359C424.459 21.5359 421.335 19.1037 421.335 14.242C421.335 8.68301 428.975 4.51583 434.188 4.51583ZM195.558 49.674H192.777C186.872 49.674 182.705 53.8384 182.705 59.3974C182.705 63.9132 184.094 69.1208 189.653 69.1208C195.212 69.1208 196.253 64.9563 196.253 60.7837V50.363C196.253 50.363 196.253 49.674 195.558 49.674ZM218.137 72.2503H220.569C221.61 72.2503 221.61 72.9421 221.61 72.9421V78.5011C221.61 79.5442 220.569 79.1983 220.569 79.1983H198.339C198.339 79.1983 197.99 79.1983 197.644 78.5011C197.299 77.112 196.95 75.723 196.95 74.6825C196.604 73.2935 195.909 74.6825 195.909 74.6825C191.045 78.1552 186.183 80.9333 179.93 80.9333C169.163 80.9333 161.175 74.3366 161.175 63.5646C161.175 50.3658 169.858 42.7259 180.278 42.7259L195.909 42.3773C195.909 42.3773 196.255 42.3773 196.255 41.6855V39.9478C196.255 35.432 193.823 33.3484 188.613 33.3484C182.013 33.3484 178.887 35.7806 175.76 39.5992C175.76 39.5992 175.414 39.9451 175.065 39.5992C174.371 39.5992 168.466 37.5156 168.466 37.5156C168.466 37.5156 168.12 37.5156 168.466 36.821C168.812 36.1265 175.414 19.4551 175.414 19.4551C175.414 19.4551 175.414 18.7605 176.109 19.1092C176.803 19.4551 181.319 20.8468 182.013 20.8468C182.708 21.1927 182.359 21.8873 182.359 21.8873C182.359 21.8873 182.359 22.5818 182.013 23.2763C181.319 24.6654 182.359 23.9709 182.359 23.9709C186.875 22.2332 191.391 21.5386 195.907 21.5386C209.106 21.5386 217.791 27.0976 217.791 40.6423V71.2099C217.789 71.2071 217.44 72.2503 218.137 72.2503ZM241.059 36.4724C241.059 42.7232 244.532 59.7433 253.218 59.7433C257.736 59.7433 259.469 57.657 259.469 52.1035C259.469 45.8499 255.647 28.8299 246.964 28.8299C242.797 28.8299 241.059 30.9135 241.059 36.4724ZM250.091 81.9737C249.051 83.0169 248.356 86.8354 248.356 89.2677C248.356 92.0485 249.745 95.1725 253.218 95.1725C255.999 95.1725 257.736 93.7835 257.736 91.0081C257.736 85.795 254.607 84.06 250.788 81.6305C250.788 81.6278 250.44 81.6278 250.091 81.9737ZM481.773 49.674H478.995C473.09 49.674 468.92 53.8384 468.92 59.3974C468.92 63.9132 470.309 69.1208 475.868 69.1208C481.427 69.1208 482.47 64.9563 482.47 60.7837V50.363C482.47 50.363 482.47 49.674 481.773 49.674ZM504.349 72.2503H507.13C507.822 72.2503 507.822 72.9421 507.822 72.9421V78.5011C507.822 79.5442 506.779 79.1983 506.779 79.1983H484.548C484.548 79.1983 484.202 79.1983 483.857 78.5011C483.511 77.112 483.159 75.723 483.159 74.6825C482.813 73.2935 482.116 74.6825 482.116 74.6825C477.254 78.1552 472.393 80.9333 466.142 80.9333C455.375 80.9333 447.384 74.3366 447.384 63.5646C447.384 50.3658 456.067 42.7259 466.488 42.7259L482.116 42.3773C482.116 42.3773 482.468 42.3773 482.468 41.6855V39.9478C482.468 35.432 480.035 33.3484 474.822 33.3484C468.226 33.3484 465.099 35.7806 461.969 39.5992C461.969 39.5992 461.623 39.9451 461.277 39.5992C460.58 39.5992 455.021 37.5156 455.021 37.5156C455.021 37.5156 454.329 37.5156 454.675 36.821C455.021 36.1265 461.623 19.4551 461.623 19.4551C461.623 19.4551 461.623 18.7605 462.321 19.1092C463.012 19.4551 467.528 20.8468 468.226 20.8468C468.92 21.1873 468.92 21.8818 468.92 21.8818L468.228 23.2709C467.531 24.66 468.574 23.9654 468.574 23.9654C473.09 22.2277 477.606 21.5332 482.119 21.5332C495.323 21.5332 504.003 27.0922 504.003 40.6369V71.2044C504.003 71.2071 504.003 72.2503 504.349 72.2503ZM25.7058 35.0834V63.2187C25.7058 68.0804 27.4435 72.2503 32.9998 72.2503C39.9478 72.2503 43.0745 68.0804 43.0745 55.2275C43.0745 34.7374 32.6539 33.6943 29.1812 33.6943L26.4003 34.0402C26.4003 34.0402 25.7058 34.3888 25.7058 35.0834ZM26.0517 26.7462C31.2621 23.6195 35.0833 21.5359 40.2937 21.5359C53.8411 21.5359 64.6077 32.6511 64.6077 48.9767C64.6077 64.9564 54.5357 80.9306 37.1669 80.9306C33.6943 80.9306 29.1785 80.5847 26.0517 78.8443C26.0517 78.8443 25.7058 78.8443 25.7058 79.1956V89.2649C25.7058 89.2649 25.7058 89.9622 26.4003 89.9622H32.6511C32.6511 89.9622 33.3457 89.9622 33.3457 90.6594V96.213C33.3457 96.5643 32.6511 96.9102 32.6511 96.9102H1.04316C1.04316 96.9102 0 96.9102 0 96.213V96.1585V96.104V96.0468V95.9896V95.927V95.8589V95.7908V95.7227V95.6492V95.5702V95.4912V95.4068V95.3223V95.2379V95.148V95.0636V94.9683V94.8729V94.7776V94.6823V94.5815V94.4862V94.3799V94.2846V94.1784V94.0776V93.9714V93.8706V93.7644V93.6582V93.552V93.4512V93.345V93.2387V93.1271V93.0263V92.9201V92.8139V92.7131V92.6123V92.5115V92.4107V92.31V92.2092V92.1139V92.0185V91.9232V91.8388V91.7435V91.659V91.5691V91.4847V91.4057V91.3267V91.2478V91.1742V91.1007V91.0326V90.9699V90.9073V90.8447V90.7902V90.7357V90.6867C0 89.9894 0.694531 89.9894 0.694531 89.9894H3.47266C4.16719 89.9894 4.16719 89.2922 4.16719 89.2922V34.762C4.16719 34.0674 3.47266 34.4161 3.47266 34.4161L0.694531 35.1106C0.694531 35.1106 0 35.1106 0 34.4161V34.3779V34.3371V34.2908V34.2418V34.1873V34.1301V34.0674V34.0021V33.9285V33.8577V33.7787V33.6997V33.6153V33.5282V33.4383V33.3484V33.2531V33.1577V33.0569V32.9562V32.85V32.7465V32.6402V32.5313V32.4223V32.3107V32.199V32.0873V31.973V31.8613V31.7469V31.6352V31.5208V31.4064V31.292V31.1804V31.066V30.9543V30.8426V30.7337V30.6247V30.5185V30.4123V30.3088V30.2053V30.1072V30.0092V29.9166V29.8213V29.7314V29.6442V29.5625V29.4808V29.4045V29.331V29.2629V29.1948V29.1349V29.0777V29.0232V28.9715V28.9279V28.8898V28.8544C0 28.1598 0.694531 28.1598 0.694531 28.1598L25.0086 21.9091C25.0086 21.9091 25.7031 21.5632 25.7031 22.255V26.4221C25.7058 27.0922 26.0517 26.7462 26.0517 26.7462ZM494.28 7.64256C494.28 3.47265 497.753 0 501.92 0C506.09 0 509.565 3.47265 509.565 7.64256C509.565 12.1584 506.092 15.631 501.92 15.631C497.753 15.631 494.28 12.1584 494.28 7.64256ZM508.519 7.64256C508.519 4.16991 505.738 1.04317 501.917 1.04317C498.096 1.04317 494.969 4.16991 494.969 7.64256C494.969 11.4638 498.096 14.5879 501.917 14.5879C505.738 14.5879 508.519 11.4638 508.519 7.64256ZM505.738 12.1584H504.349L501.917 7.99121H500.182V12.1584H499.139V3.47538H502.612C503.303 3.47538 504.347 3.47538 504.698 3.824C505.39 4.16991 505.736 5.21308 505.736 5.90762C505.736 7.2994 504.698 7.99393 502.958 7.99393L505.738 12.1584ZM501.571 7.29394C502.96 7.29394 504.698 7.63984 504.698 5.90215C504.698 4.51309 503.655 4.1672 502.612 4.1672H500.179V7.29394H501.571Z" fill="black"></path>
</svg>
