<svg width="98" height="49" viewBox="0 0 98 49" fill="none" xmlns="http://www.w3.org/2000/svg">
<path d="M53.1366 0.1636C52.82 0.212383 52.5156 1.3801 51.9038 1.98836C51.4563 2.42739 50.8977 2.39995 50.6009 2.94266C50.4883 3.14541 50.5248 3.49146 50.397 3.82378C50.1474 4.48843 49.2677 4.54789 49.2677 5.272C49.2646 6.05403 50.0013 6.20344 50.639 6.75833C51.1367 7.20499 51.1854 7.51292 51.7881 7.72939C52.3026 7.90471 53.0681 7.33152 53.7576 7.53732C54.3238 7.70654 54.8656 7.82848 54.9935 8.41082C55.1061 8.94742 54.9859 9.77977 54.2994 9.68373C54.0681 9.65781 53.0651 9.31938 51.8323 9.45049C50.3452 9.6197 48.6482 10.106 48.4823 11.7661C48.391 12.6945 49.537 13.789 50.6436 13.5665C51.4091 13.4156 51.0469 12.5116 51.4639 12.0725C52.0103 11.51 55.1061 14.036 57.9843 14.036C59.1958 14.036 60.0968 13.7296 60.9918 12.7905C61.0755 12.7189 61.1774 12.5649 61.3068 12.5558C61.4286 12.5649 61.6417 12.6854 61.7117 12.7372C64.0297 14.6031 65.7816 18.3456 74.3003 18.3898C75.4981 18.3959 76.8634 18.9691 77.9775 19.9874C78.9714 20.9082 79.5528 22.3396 80.1174 23.7924C80.9698 25.9724 82.4979 28.0929 84.8144 30.4527C84.9407 30.5792 86.8478 32.064 87 32.1753C87.0244 32.1906 87.1644 32.5259 87.1157 32.7134C87.0594 34.1281 86.8539 38.2426 89.9162 38.4286C90.665 38.4667 90.4687 37.9392 90.4687 37.5764C90.4672 36.8599 90.3363 36.148 90.7137 35.4148C91.2297 34.4056 89.6194 33.9406 89.6666 31.7592C89.7001 30.1326 88.3364 30.41 87.6438 29.1707C87.2451 28.4526 86.8904 28.0715 86.9163 27.1935C87.0716 22.2512 85.8661 19.0042 85.2649 18.2069C84.7961 17.6047 84.408 17.3654 84.8372 17.0864C87.3927 15.3958 87.9726 13.8226 87.9726 13.8226C89.3317 10.6228 90.5539 7.70044 92.2388 6.41381C92.5782 6.14856 93.4488 5.49762 93.983 5.24151C95.5553 4.4991 96.3833 4.0494 96.8399 3.60426C97.5628 2.89845 98.1336 1.42736 97.4411 0.535566C96.5796 -0.565088 95.0895 0.308414 94.432 0.698675C89.7336 3.49146 89.041 8.41844 87.414 11.2478C86.1157 13.5086 84.0047 15.1687 82.1174 15.3043C80.7019 15.4095 79.1768 15.1229 77.6579 14.4552C73.9639 12.8332 71.9427 10.7386 71.4663 10.3682C70.4739 9.60141 62.7695 2.02647 56.5277 1.71701C56.5277 1.71701 55.753 0.163599 55.5582 0.137683C55.1016 0.0797514 54.6343 1.06607 54.2994 1.18039C53.9844 1.28559 53.4547 0.111767 53.1366 0.1636Z" fill="black"></path>
<path d="M25.658 45.374C25.0705 45.3603 24.5713 44.877 24.5713 44.2794L24.5728 24.7788H18.156V46.275C18.156 47.3283 19.0083 48.1881 20.054 48.1881H31.2697C32.323 48.1881 33.1646 47.3283 33.1646 46.275V24.7788H26.7539L26.7478 44.2794C26.7478 44.877 26.2486 45.3603 25.658 45.374Z" fill="black"></path>
<path d="M47.143 24.7788H37.431C36.2819 24.7788 35.3458 25.7148 35.3458 26.878V48.1881H41.7687V28.6402C41.7733 28.0411 42.2573 27.567 42.8539 27.567C43.4536 27.567 43.9346 28.0304 43.9483 28.6234V48.1881H50.3453V28.6234C50.3529 28.0304 50.8339 27.567 51.432 27.567C52.0256 27.567 52.5157 28.0411 52.5203 28.6402V48.1881H58.9432V26.878C58.9432 25.7148 58.0056 24.7788 56.8565 24.7788H47.143Z" fill="black"></path>
<path d="M9.56879 28.6814C9.57336 28.0304 9.04369 27.567 8.48207 27.567H7.3923V39.4073H8.48207C9.04826 39.4073 9.57336 38.9561 9.56879 38.3082V28.6814ZM13.8746 42.3053H7.3923V48.1881H0.978516V24.7788H13.9157C15.0739 24.7788 15.978 25.7209 15.978 26.8871V40.197C15.978 41.3647 15.0389 42.3053 13.8746 42.3053Z" fill="black"></path>
<path d="M80.953 42.9532C79.6638 42.9532 78.5817 44.069 78.5817 45.4212C78.5817 46.778 79.6638 47.8847 80.9941 47.8847C82.3137 47.8847 83.3821 46.778 83.3821 45.4212C83.3821 44.066 82.3137 42.9532 80.9941 42.9532H80.953ZM83.8418 45.4136C83.8418 47.0036 82.5694 48.2963 80.9941 48.2963C79.402 48.2963 78.1235 47.0127 78.1235 45.4136C78.1235 43.845 79.402 42.5339 80.9469 42.5339C82.5694 42.5339 83.8418 43.8053 83.8418 45.4136Z" fill="black"></path>
<path d="M80.6974 45.2305C81.1433 45.2305 81.3777 45.0719 81.3777 44.7549C81.3777 44.4728 81.1509 44.328 80.7171 44.328H80.5893V45.2305H80.6974ZM82.3396 47.0812H81.574L80.5893 45.7686V47.0812H79.9637V43.7625H80.6213C81.5147 43.7625 81.9896 44.1009 81.9896 44.7472C81.9896 45.1787 81.7095 45.5613 81.3183 45.6756L81.2727 45.6924L82.3396 47.0812Z" fill="black"></path>
<path d="M69.7112 39.4119V28.6326C69.696 28.0365 69.2166 27.5792 68.6184 27.5792C68.0264 27.5792 67.5363 28.0548 67.5317 28.6494V39.4119H69.7112ZM69.7112 48.1881V42.3114H67.5317V48.1881H61.121V26.878C61.121 25.7148 62.057 24.7788 63.2061 24.7788H74.0368C75.189 24.7788 76.125 25.7148 76.125 26.878V48.1881H69.7112Z" fill="black"></path>
</svg>
