<svg width="93" height="40" viewBox="0 0 93 40" fill="none" xmlns="http://www.w3.org/2000/svg">
<path fill-rule="evenodd" clip-rule="evenodd" d="M92.0114 20.6382C92.0114 14.0975 88.8433 8.93652 82.788 8.93652C76.7072 8.93652 73.0281 14.0975 73.0281 20.5871C73.0281 28.2776 77.3715 32.1611 83.6056 32.1611C86.646 32.1611 88.9455 31.4713 90.6828 30.5004V25.3905C88.9455 26.2591 86.9526 26.7957 84.4232 26.7957C81.9449 26.7957 79.7476 25.927 79.4666 22.9121H91.9603C91.9603 22.58 92.0114 21.2514 92.0114 20.6382ZM79.3899 18.211C79.3899 15.3239 81.1528 14.1231 82.7625 14.1231C84.321 14.1231 85.9817 15.3239 85.9817 18.211H79.3899Z" fill="black"></path>
<path fill-rule="evenodd" clip-rule="evenodd" d="M63.1661 8.93652C60.6622 8.93652 59.0526 10.1118 58.1584 10.9294L57.8262 9.34532H52.2053V39.1361L58.5927 37.782L58.6183 30.5515C59.538 31.2158 60.8922 32.1611 63.1405 32.1611C67.7139 32.1611 71.8785 28.482 71.8785 20.3827C71.853 12.9734 67.6373 8.93652 63.1661 8.93652ZM61.6331 26.5402C60.1257 26.5402 59.2315 26.0036 58.6183 25.3394L58.5927 15.8605C59.257 15.1195 60.1768 14.6085 61.6331 14.6085C63.9581 14.6085 65.5678 17.2146 65.5678 20.5616C65.5678 23.9852 63.9837 26.5402 61.6331 26.5402Z" fill="black"></path>
<path fill-rule="evenodd" clip-rule="evenodd" d="M43.4165 7.42953L49.8294 6.04985V0.863281L43.4165 2.21741V7.42953Z" fill="black"></path>
<path d="M49.8294 9.37109H43.4165V31.727H49.8294V9.37109Z" fill="black"></path>
<path fill-rule="evenodd" clip-rule="evenodd" d="M36.5432 11.2622L36.1344 9.37152H30.6157V31.7274H37.0031V16.5765C38.5105 14.6092 41.0655 14.9669 41.8575 15.2479V9.37152C41.04 9.06492 38.0507 8.50283 36.5432 11.2622Z" fill="black"></path>
<path fill-rule="evenodd" clip-rule="evenodd" d="M23.7689 3.82715L17.5348 5.15573L17.5093 25.6209C17.5093 29.4023 20.3453 32.1872 24.1266 32.1872C26.2217 32.1872 27.7547 31.8039 28.5978 31.3441V26.1575C27.7802 26.4896 23.7434 27.6649 23.7434 23.8836V14.8135H28.5978V9.37141H23.7434L23.7689 3.82715Z" fill="black"></path>
<path fill-rule="evenodd" clip-rule="evenodd" d="M6.49725 15.8605C6.49725 14.864 7.31484 14.4808 8.66896 14.4808C10.6107 14.4808 13.0635 15.0684 15.0053 16.116V10.1118C12.8846 9.26867 10.7896 8.93652 8.66896 8.93652C3.4824 8.93652 0.0332031 11.6448 0.0332031 16.1671C0.0332031 23.2187 9.74205 22.0946 9.74205 25.135C9.74205 26.3102 8.72006 26.6935 7.28929 26.6935C5.16867 26.6935 2.46041 25.8248 0.314248 24.6495V30.7303C2.69036 31.7523 5.09202 32.1866 7.28929 32.1866C12.6036 32.1866 16.2572 29.555 16.2572 24.9817C16.2316 17.3679 6.49725 18.722 6.49725 15.8605Z" fill="black"></path>
</svg>
