<svg width="122" height="32" viewBox="0 0 122 32" fill="none" xmlns="http://www.w3.org/2000/svg">
<path d="M16.8771 29.9374C15.0569 30.2502 13.2047 30.3439 11.2887 30.5937L5.4445 13.8438V31.3126C3.6243 31.5 1.96374 31.75 0.239258 32V0H5.09344L11.7357 18.1565V0H16.8771V29.9374ZM26.9365 11.7188C28.9166 11.7188 31.9504 11.625 33.7706 11.625V16.6249C31.5031 16.6249 28.8527 16.6249 26.9365 16.7186V24.1563C29.9385 23.9688 32.9403 23.7186 35.974 23.6248V28.4371L21.8269 29.531V0H35.974V5.00001H26.9365V11.7188ZM54.975 5.00012H49.6739V28.0001C47.9494 28.0001 46.2249 28.0001 44.5646 28.0624V5.00012H39.2635V0H54.9752L54.975 5.00012ZM63.2779 11.3751H70.2717V16.375H63.2779V27.7189H58.2638V0H72.539V5.00001H63.2779V11.3751ZM80.8419 23.3437C83.748 23.4061 86.6858 23.6252 89.5282 23.7812V28.7187C84.9616 28.4373 80.3949 28.1564 75.7325 28.0624V0H80.8419V23.3437ZM93.8393 29.0625C95.4679 29.1564 97.1924 29.2502 98.853 29.4374V0H93.8393V29.0625ZM121.239 0L114.756 15.2188L121.239 32C119.323 31.75 117.407 31.4062 115.491 31.0937L111.819 21.8439L108.083 30.3439C106.23 30.0311 104.442 29.9374 102.59 29.6874L109.168 15.0311L103.228 0H108.721L112.074 8.40627L115.651 0H121.239V0Z" fill="black"></path>
</svg>
